<svg width="41" height="40" viewBox="0 0 41 40" fill="none" xmlns="http://www.w3.org/2000/svg">
<path d="M19.4705 2.16745C19.9369 1.39247 21.0605 1.39247 21.5269 2.16745L27.3272 11.8056C27.4948 12.084 27.7681 12.2826 28.0846 12.3559L39.0435 14.894C39.9246 15.0981 40.2718 16.1667 39.6789 16.8497L32.3049 25.3445C32.0919 25.5899 31.9875 25.9112 32.0156 26.2349L32.9882 37.4417C33.0664 38.3428 32.1574 39.0032 31.3246 38.6504L20.9668 34.2623C20.6676 34.1355 20.3298 34.1355 20.0306 34.2623L9.67284 38.6504C8.84 39.0032 7.93102 38.3428 8.00923 37.4417L8.98183 26.2349C9.00993 25.9112 8.90554 25.5899 8.69252 25.3445L1.31848 16.8497C0.725553 16.1667 1.07275 15.0981 1.95393 14.894L12.9128 12.3559C13.2293 12.2826 13.5026 12.084 13.6702 11.8056L19.4705 2.16745Z" fill="#2B221B" stroke="#2B221B" stroke-width="1.5"/>
</svg>
